<?xml version="1.0" encoding="UTF-8" standalone="no"?>
<!-- Created with Inkscape (http://www.inkscape.org/) -->

<svg
   width="1920"
   height="1080"
   viewBox="0 0 508 285.75"
   version="1.1"
   id="svg39377"
   inkscape:version="1.2.1 (9c6d41e410, 2022-07-14)"
   sodipodi:docname="multidoc-vertical.svg"
   xmlns:inkscape="http://www.inkscape.org/namespaces/inkscape"
   xmlns:sodipodi="http://sodipodi.sourceforge.net/DTD/sodipodi-0.dtd"
   xmlns="http://www.w3.org/2000/svg"
   xmlns:svg="http://www.w3.org/2000/svg">
  <sodipodi:namedview
     id="namedview39379"
     pagecolor="#ffffff"
     bordercolor="#666666"
     borderopacity="1.0"
     inkscape:showpageshadow="2"
     inkscape:pageopacity="0.0"
     inkscape:pagecheckerboard="0"
     inkscape:deskcolor="#d1d1d1"
     inkscape:document-units="mm"
     showgrid="false"
     inkscape:zoom="0.5"
     inkscape:cx="1100"
     inkscape:cy="500"
     inkscape:window-width="1920"
     inkscape:window-height="1009"
     inkscape:window-x="-8"
     inkscape:window-y="-8"
     inkscape:window-maximized="1"
     inkscape:current-layer="layer1">
    <inkscape:page id="page-1" x="0" y="0.00" width="508.00" height="285.75" />
<inkscape:page id="page-2" x="0" y="285.75" width="508.00" height="285.75" />
<inkscape:page id="page-3" x="0" y="571.50" width="508.00" height="285.75" />
<inkscape:page id="page-4" x="0" y="857.25" width="508.00" height="285.75" />
<inkscape:page id="page-5" x="0" y="1143.00" width="508.00" height="285.75" />
<inkscape:page id="page-6" x="0" y="1428.75" width="508.00" height="285.75" />
<inkscape:page id="page-7" x="0" y="1714.50" width="508.00" height="285.75" />
<inkscape:page id="page-8" x="0" y="2000.25" width="508.00" height="285.75" />
<inkscape:page id="page-9" x="0" y="2286.00" width="508.00" height="285.75" />
<inkscape:page id="page-10" x="0" y="2571.75" width="508.00" height="285.75" />
<inkscape:page id="page-11" x="0" y="2857.50" width="508.00" height="285.75" />
<inkscape:page id="page-12" x="0" y="3143.25" width="508.00" height="285.75" />
<inkscape:page id="page-13" x="0" y="3429.00" width="508.00" height="285.75" />
<inkscape:page id="page-14" x="0" y="3714.75" width="508.00" height="285.75" />
<inkscape:page id="page-15" x="0" y="4000.50" width="508.00" height="285.75" />
<inkscape:page id="page-16" x="0" y="4286.25" width="508.00" height="285.75" />
<inkscape:page id="page-17" x="0" y="4572.00" width="508.00" height="285.75" />
<inkscape:page id="page-18" x="0" y="4857.75" width="508.00" height="285.75" />
<inkscape:page id="page-19" x="0" y="5143.50" width="508.00" height="285.75" />
<inkscape:page id="page-20" x="0" y="5429.25" width="508.00" height="285.75" />
  </sodipodi:namedview>
  <defs
     id="defs39374" />
  <g
     inkscape:label="Layer 1"
     inkscape:groupmode="layer"
     id="layer1" />
</svg>
