<?xml version="1.0" encoding="UTF-8" standalone="no"?>
<!-- Created with Inkscape (http://www.inkscape.org/) -->

<svg
   width="1920"
   height="1080"
   viewBox="0 0 1920 1080"
   version="1.1"
   id="svg39377"
   inkscape:version="1.2.1 (9c6d41e410, 2022-07-14)"
   sodipodi:docname="multidoc-vertical.svg"
   xmlns:inkscape="http://www.inkscape.org/namespaces/inkscape"
   xmlns:sodipodi="http://sodipodi.sourceforge.net/DTD/sodipodi-0.dtd"
   xmlns="http://www.w3.org/2000/svg"
   xmlns:svg="http://www.w3.org/2000/svg">
  <sodipodi:namedview
     id="namedview39379"
     pagecolor="#ffffff"
     bordercolor="#666666"
     borderopacity="1.0"
     inkscape:showpageshadow="2"
     inkscape:pageopacity="0.0"
     inkscape:pagecheckerboard="0"
     inkscape:deskcolor="#d1d1d1"
     inkscape:document-units="px"
     showgrid="false"
     inkscape:zoom="0.5"
     inkscape:cx="1100"
     inkscape:cy="500"
     inkscape:window-width="1920"
     inkscape:window-height="1009"
     inkscape:window-x="-8"
     inkscape:window-y="-8"
     inkscape:window-maximized="1"
     inkscape:current-layer="layer1">
    <inkscape:page id="page-1" x="0" y="0.00" width="1920.00" height="1080.00" />
<inkscape:page id="page-2" x="0" y="1080.00" width="1920.00" height="1080.00" />
<inkscape:page id="page-3" x="0" y="2160.00" width="1920.00" height="1080.00" />
<inkscape:page id="page-4" x="0" y="3240.00" width="1920.00" height="1080.00" />
<inkscape:page id="page-5" x="0" y="4320.00" width="1920.00" height="1080.00" />
<inkscape:page id="page-6" x="0" y="5400.00" width="1920.00" height="1080.00" />
<inkscape:page id="page-7" x="0" y="6480.00" width="1920.00" height="1080.00" />
<inkscape:page id="page-8" x="0" y="7560.00" width="1920.00" height="1080.00" />
<inkscape:page id="page-9" x="0" y="8640.00" width="1920.00" height="1080.00" />
<inkscape:page id="page-10" x="0" y="9720.00" width="1920.00" height="1080.00" />
<inkscape:page id="page-11" x="0" y="10800.00" width="1920.00" height="1080.00" />
<inkscape:page id="page-12" x="0" y="11880.00" width="1920.00" height="1080.00" />
<inkscape:page id="page-13" x="0" y="12960.00" width="1920.00" height="1080.00" />
<inkscape:page id="page-14" x="0" y="14040.00" width="1920.00" height="1080.00" />
<inkscape:page id="page-15" x="0" y="15120.00" width="1920.00" height="1080.00" />
<inkscape:page id="page-16" x="0" y="16200.00" width="1920.00" height="1080.00" />
<inkscape:page id="page-17" x="0" y="17280.00" width="1920.00" height="1080.00" />
<inkscape:page id="page-18" x="0" y="18360.00" width="1920.00" height="1080.00" />
<inkscape:page id="page-19" x="0" y="19440.00" width="1920.00" height="1080.00" />
<inkscape:page id="page-20" x="0" y="20520.00" width="1920.00" height="1080.00" />
<inkscape:page id="page-21" x="0" y="21600.00" width="1920.00" height="1080.00" />
<inkscape:page id="page-22" x="0" y="22680.00" width="1920.00" height="1080.00" />
<inkscape:page id="page-23" x="0" y="23760.00" width="1920.00" height="1080.00" />
<inkscape:page id="page-24" x="0" y="24840.00" width="1920.00" height="1080.00" />
<inkscape:page id="page-25" x="0" y="25920.00" width="1920.00" height="1080.00" />
<inkscape:page id="page-26" x="0" y="27000.00" width="1920.00" height="1080.00" />
<inkscape:page id="page-27" x="0" y="28080.00" width="1920.00" height="1080.00" />
<inkscape:page id="page-28" x="0" y="29160.00" width="1920.00" height="1080.00" />
<inkscape:page id="page-29" x="0" y="30240.00" width="1920.00" height="1080.00" />
<inkscape:page id="page-30" x="0" y="31320.00" width="1920.00" height="1080.00" />
<inkscape:page id="page-31" x="0" y="32400.00" width="1920.00" height="1080.00" />
<inkscape:page id="page-32" x="0" y="33480.00" width="1920.00" height="1080.00" />
<inkscape:page id="page-33" x="0" y="34560.00" width="1920.00" height="1080.00" />
<inkscape:page id="page-34" x="0" y="35640.00" width="1920.00" height="1080.00" />
<inkscape:page id="page-35" x="0" y="36720.00" width="1920.00" height="1080.00" />
<inkscape:page id="page-36" x="0" y="37800.00" width="1920.00" height="1080.00" />
<inkscape:page id="page-37" x="0" y="38880.00" width="1920.00" height="1080.00" />
<inkscape:page id="page-38" x="0" y="39960.00" width="1920.00" height="1080.00" />
<inkscape:page id="page-39" x="0" y="41040.00" width="1920.00" height="1080.00" />
<inkscape:page id="page-40" x="0" y="42120.00" width="1920.00" height="1080.00" />
<inkscape:page id="page-41" x="0" y="43200.00" width="1920.00" height="1080.00" />
<inkscape:page id="page-42" x="0" y="44280.00" width="1920.00" height="1080.00" />
<inkscape:page id="page-43" x="0" y="45360.00" width="1920.00" height="1080.00" />
<inkscape:page id="page-44" x="0" y="46440.00" width="1920.00" height="1080.00" />
<inkscape:page id="page-45" x="0" y="47520.00" width="1920.00" height="1080.00" />
<inkscape:page id="page-46" x="0" y="48600.00" width="1920.00" height="1080.00" />
<inkscape:page id="page-47" x="0" y="49680.00" width="1920.00" height="1080.00" />
<inkscape:page id="page-48" x="0" y="50760.00" width="1920.00" height="1080.00" />
<inkscape:page id="page-49" x="0" y="51840.00" width="1920.00" height="1080.00" />
<inkscape:page id="page-50" x="0" y="52920.00" width="1920.00" height="1080.00" />
<inkscape:page id="page-51" x="0" y="54000.00" width="1920.00" height="1080.00" />
<inkscape:page id="page-52" x="0" y="55080.00" width="1920.00" height="1080.00" />
<inkscape:page id="page-53" x="0" y="56160.00" width="1920.00" height="1080.00" />
<inkscape:page id="page-54" x="0" y="57240.00" width="1920.00" height="1080.00" />
  </sodipodi:namedview>
  <defs
     id="defs39374" />
  <g
     inkscape:label="Layer 1"
     inkscape:groupmode="layer"
     id="layer1" />
</svg>
