<?xml version="1.0" encoding="UTF-8" standalone="no"?>
<!-- Created with Inkscape (http://www.inkscape.org/) -->

<svg
   width="1920"
   height="1080"
   viewBox="0 0 508 285.75"
   version="1.1"
   id="svg39377"
   inkscape:version="1.2.1 (9c6d41e410, 2022-07-14)"
   sodipodi:docname="multidoc-vertical.svg"
   xmlns:inkscape="http://www.inkscape.org/namespaces/inkscape"
   xmlns:sodipodi="http://sodipodi.sourceforge.net/DTD/sodipodi-0.dtd"
   xmlns="http://www.w3.org/2000/svg"
   xmlns:svg="http://www.w3.org/2000/svg">
  <sodipodi:namedview
     id="namedview39379"
     pagecolor="#ffffff"
     bordercolor="#666666"
     borderopacity="1.0"
     inkscape:showpageshadow="2"
     inkscape:pageopacity="0.0"
     inkscape:pagecheckerboard="0"
     inkscape:deskcolor="#d1d1d1"
     inkscape:document-units="mm"
     showgrid="false"
     inkscape:zoom="0.5"
     inkscape:cx="1100"
     inkscape:cy="500"
     inkscape:window-width="1920"
     inkscape:window-height="1009"
     inkscape:window-x="-8"
     inkscape:window-y="-8"
     inkscape:window-maximized="1"
     inkscape:current-layer="layer1">
    <inkscape:page id="page-1" x="0.00" y="0" width="508.00" height="285.75" />
<inkscape:page id="page-2" x="508.00" y="0" width="508.00" height="285.75" />
<inkscape:page id="page-3" x="1016.00" y="0" width="508.00" height="285.75" />
<inkscape:page id="page-4" x="1524.00" y="0" width="508.00" height="285.75" />
<inkscape:page id="page-5" x="2032.00" y="0" width="508.00" height="285.75" />
<inkscape:page id="page-6" x="2540.00" y="0" width="508.00" height="285.75" />
<inkscape:page id="page-7" x="3048.00" y="0" width="508.00" height="285.75" />
<inkscape:page id="page-8" x="3556.00" y="0" width="508.00" height="285.75" />
<inkscape:page id="page-9" x="4064.00" y="0" width="508.00" height="285.75" />
<inkscape:page id="page-10" x="4572.00" y="0" width="508.00" height="285.75" />
<inkscape:page id="page-11" x="5080.00" y="0" width="508.00" height="285.75" />
<inkscape:page id="page-12" x="5588.00" y="0" width="508.00" height="285.75" />
<inkscape:page id="page-13" x="6096.00" y="0" width="508.00" height="285.75" />
<inkscape:page id="page-14" x="6604.00" y="0" width="508.00" height="285.75" />
<inkscape:page id="page-15" x="7112.00" y="0" width="508.00" height="285.75" />
<inkscape:page id="page-16" x="7620.00" y="0" width="508.00" height="285.75" />
<inkscape:page id="page-17" x="8128.00" y="0" width="508.00" height="285.75" />
<inkscape:page id="page-18" x="8636.00" y="0" width="508.00" height="285.75" />
<inkscape:page id="page-19" x="9144.00" y="0" width="508.00" height="285.75" />
<inkscape:page id="page-20" x="9652.00" y="0" width="508.00" height="285.75" />
<inkscape:page id="page-21" x="10160.00" y="0" width="508.00" height="285.75" />
<inkscape:page id="page-22" x="10668.00" y="0" width="508.00" height="285.75" />
<inkscape:page id="page-23" x="11176.00" y="0" width="508.00" height="285.75" />
<inkscape:page id="page-24" x="11684.00" y="0" width="508.00" height="285.75" />
<inkscape:page id="page-25" x="12192.00" y="0" width="508.00" height="285.75" />
<inkscape:page id="page-26" x="12700.00" y="0" width="508.00" height="285.75" />
<inkscape:page id="page-27" x="13208.00" y="0" width="508.00" height="285.75" />
<inkscape:page id="page-28" x="13716.00" y="0" width="508.00" height="285.75" />
<inkscape:page id="page-29" x="14224.00" y="0" width="508.00" height="285.75" />
<inkscape:page id="page-30" x="14732.00" y="0" width="508.00" height="285.75" />
<inkscape:page id="page-31" x="15240.00" y="0" width="508.00" height="285.75" />
<inkscape:page id="page-32" x="15748.00" y="0" width="508.00" height="285.75" />
<inkscape:page id="page-33" x="16256.00" y="0" width="508.00" height="285.75" />
<inkscape:page id="page-34" x="16764.00" y="0" width="508.00" height="285.75" />
<inkscape:page id="page-35" x="17272.00" y="0" width="508.00" height="285.75" />
<inkscape:page id="page-36" x="17780.00" y="0" width="508.00" height="285.75" />
<inkscape:page id="page-37" x="18288.00" y="0" width="508.00" height="285.75" />
<inkscape:page id="page-38" x="18796.00" y="0" width="508.00" height="285.75" />
<inkscape:page id="page-39" x="19304.00" y="0" width="508.00" height="285.75" />
<inkscape:page id="page-40" x="19812.00" y="0" width="508.00" height="285.75" />
<inkscape:page id="page-41" x="20320.00" y="0" width="508.00" height="285.75" />
<inkscape:page id="page-42" x="20828.00" y="0" width="508.00" height="285.75" />
<inkscape:page id="page-43" x="21336.00" y="0" width="508.00" height="285.75" />
<inkscape:page id="page-44" x="21844.00" y="0" width="508.00" height="285.75" />
<inkscape:page id="page-45" x="22352.00" y="0" width="508.00" height="285.75" />
<inkscape:page id="page-46" x="22860.00" y="0" width="508.00" height="285.75" />
<inkscape:page id="page-47" x="23368.00" y="0" width="508.00" height="285.75" />
<inkscape:page id="page-48" x="23876.00" y="0" width="508.00" height="285.75" />
<inkscape:page id="page-49" x="24384.00" y="0" width="508.00" height="285.75" />
<inkscape:page id="page-50" x="24892.00" y="0" width="508.00" height="285.75" />
<inkscape:page id="page-51" x="25400.00" y="0" width="508.00" height="285.75" />
<inkscape:page id="page-52" x="25908.00" y="0" width="508.00" height="285.75" />
<inkscape:page id="page-53" x="26416.00" y="0" width="508.00" height="285.75" />
<inkscape:page id="page-54" x="26924.00" y="0" width="508.00" height="285.75" />
<inkscape:page id="page-55" x="27432.00" y="0" width="508.00" height="285.75" />
<inkscape:page id="page-56" x="27940.00" y="0" width="508.00" height="285.75" />
<inkscape:page id="page-57" x="28448.00" y="0" width="508.00" height="285.75" />
<inkscape:page id="page-58" x="28956.00" y="0" width="508.00" height="285.75" />
<inkscape:page id="page-59" x="29464.00" y="0" width="508.00" height="285.75" />
<inkscape:page id="page-60" x="29972.00" y="0" width="508.00" height="285.75" />
<inkscape:page id="page-61" x="30480.00" y="0" width="508.00" height="285.75" />
<inkscape:page id="page-62" x="30988.00" y="0" width="508.00" height="285.75" />
<inkscape:page id="page-63" x="31496.00" y="0" width="508.00" height="285.75" />
<inkscape:page id="page-64" x="32004.00" y="0" width="508.00" height="285.75" />
<inkscape:page id="page-65" x="32512.00" y="0" width="508.00" height="285.75" />
<inkscape:page id="page-66" x="33020.00" y="0" width="508.00" height="285.75" />
<inkscape:page id="page-67" x="33528.00" y="0" width="508.00" height="285.75" />
<inkscape:page id="page-68" x="34036.00" y="0" width="508.00" height="285.75" />
<inkscape:page id="page-69" x="34544.00" y="0" width="508.00" height="285.75" />
<inkscape:page id="page-70" x="35052.00" y="0" width="508.00" height="285.75" />
<inkscape:page id="page-71" x="35560.00" y="0" width="508.00" height="285.75" />
<inkscape:page id="page-72" x="36068.00" y="0" width="508.00" height="285.75" />
<inkscape:page id="page-73" x="36576.00" y="0" width="508.00" height="285.75" />
<inkscape:page id="page-74" x="37084.00" y="0" width="508.00" height="285.75" />
<inkscape:page id="page-75" x="37592.00" y="0" width="508.00" height="285.75" />
<inkscape:page id="page-76" x="38100.00" y="0" width="508.00" height="285.75" />
<inkscape:page id="page-77" x="38608.00" y="0" width="508.00" height="285.75" />
<inkscape:page id="page-78" x="39116.00" y="0" width="508.00" height="285.75" />
<inkscape:page id="page-79" x="39624.00" y="0" width="508.00" height="285.75" />
<inkscape:page id="page-80" x="40132.00" y="0" width="508.00" height="285.75" />
<inkscape:page id="page-81" x="40640.00" y="0" width="508.00" height="285.75" />
<inkscape:page id="page-82" x="41148.00" y="0" width="508.00" height="285.75" />
<inkscape:page id="page-83" x="41656.00" y="0" width="508.00" height="285.75" />
<inkscape:page id="page-84" x="42164.00" y="0" width="508.00" height="285.75" />
<inkscape:page id="page-85" x="42672.00" y="0" width="508.00" height="285.75" />
<inkscape:page id="page-86" x="43180.00" y="0" width="508.00" height="285.75" />
<inkscape:page id="page-87" x="43688.00" y="0" width="508.00" height="285.75" />
<inkscape:page id="page-88" x="44196.00" y="0" width="508.00" height="285.75" />
<inkscape:page id="page-89" x="44704.00" y="0" width="508.00" height="285.75" />
<inkscape:page id="page-90" x="45212.00" y="0" width="508.00" height="285.75" />
<inkscape:page id="page-91" x="45720.00" y="0" width="508.00" height="285.75" />
<inkscape:page id="page-92" x="46228.00" y="0" width="508.00" height="285.75" />
<inkscape:page id="page-93" x="46736.00" y="0" width="508.00" height="285.75" />
<inkscape:page id="page-94" x="47244.00" y="0" width="508.00" height="285.75" />
<inkscape:page id="page-95" x="47752.00" y="0" width="508.00" height="285.75" />
<inkscape:page id="page-96" x="48260.00" y="0" width="508.00" height="285.75" />
<inkscape:page id="page-97" x="48768.00" y="0" width="508.00" height="285.75" />
<inkscape:page id="page-98" x="49276.00" y="0" width="508.00" height="285.75" />
  </sodipodi:namedview>
  <defs
     id="defs39374" />
  <g
     inkscape:label="Layer 1"
     inkscape:groupmode="layer"
     id="layer1" />
</svg>
