<?xml version="1.0" encoding="UTF-8" standalone="no"?>
<!-- Created with Inkscape (http://www.inkscape.org/) -->

<svg
   width="1920"
   height="1080"
   viewBox="0 0 508 285.75"
   version="1.1"
   id="svg39377"
   inkscape:version="1.2.1 (9c6d41e410, 2022-07-14)"
   sodipodi:docname="multidoc-vertical.svg"
   xmlns:inkscape="http://www.inkscape.org/namespaces/inkscape"
   xmlns:sodipodi="http://sodipodi.sourceforge.net/DTD/sodipodi-0.dtd"
   xmlns="http://www.w3.org/2000/svg"
   xmlns:svg="http://www.w3.org/2000/svg">
  <sodipodi:namedview
     id="namedview39379"
     pagecolor="#ffffff"
     bordercolor="#666666"
     borderopacity="1.0"
     inkscape:showpageshadow="2"
     inkscape:pageopacity="0.0"
     inkscape:pagecheckerboard="0"
     inkscape:deskcolor="#d1d1d1"
     inkscape:document-units="mm"
     showgrid="false"
     inkscape:zoom="0.5"
     inkscape:cx="1100"
     inkscape:cy="500"
     inkscape:window-width="1920"
     inkscape:window-height="1009"
     inkscape:window-x="-8"
     inkscape:window-y="-8"
     inkscape:window-maximized="1"
     inkscape:current-layer="layer1">
    <inkscape:page id="page-1" x="0" y="0.00" width="508.00" height="285.75" />
<inkscape:page id="page-2" x="0" y="285.75" width="508.00" height="285.75" />
<inkscape:page id="page-3" x="0" y="571.50" width="508.00" height="285.75" />
<inkscape:page id="page-4" x="0" y="857.25" width="508.00" height="285.75" />
<inkscape:page id="page-5" x="0" y="1143.00" width="508.00" height="285.75" />
<inkscape:page id="page-6" x="0" y="1428.75" width="508.00" height="285.75" />
<inkscape:page id="page-7" x="0" y="1714.50" width="508.00" height="285.75" />
<inkscape:page id="page-8" x="0" y="2000.25" width="508.00" height="285.75" />
<inkscape:page id="page-9" x="0" y="2286.00" width="508.00" height="285.75" />
<inkscape:page id="page-10" x="0" y="2571.75" width="508.00" height="285.75" />
<inkscape:page id="page-11" x="0" y="2857.50" width="508.00" height="285.75" />
<inkscape:page id="page-12" x="0" y="3143.25" width="508.00" height="285.75" />
<inkscape:page id="page-13" x="0" y="3429.00" width="508.00" height="285.75" />
<inkscape:page id="page-14" x="0" y="3714.75" width="508.00" height="285.75" />
<inkscape:page id="page-15" x="0" y="4000.50" width="508.00" height="285.75" />
<inkscape:page id="page-16" x="0" y="4286.25" width="508.00" height="285.75" />
<inkscape:page id="page-17" x="0" y="4572.00" width="508.00" height="285.75" />
<inkscape:page id="page-18" x="0" y="4857.75" width="508.00" height="285.75" />
<inkscape:page id="page-19" x="0" y="5143.50" width="508.00" height="285.75" />
<inkscape:page id="page-20" x="0" y="5429.25" width="508.00" height="285.75" />
<inkscape:page id="page-21" x="0" y="5715.00" width="508.00" height="285.75" />
<inkscape:page id="page-22" x="0" y="6000.75" width="508.00" height="285.75" />
<inkscape:page id="page-23" x="0" y="6286.50" width="508.00" height="285.75" />
<inkscape:page id="page-24" x="0" y="6572.25" width="508.00" height="285.75" />
<inkscape:page id="page-25" x="0" y="6858.00" width="508.00" height="285.75" />
<inkscape:page id="page-26" x="0" y="7143.75" width="508.00" height="285.75" />
<inkscape:page id="page-27" x="0" y="7429.50" width="508.00" height="285.75" />
<inkscape:page id="page-28" x="0" y="7715.25" width="508.00" height="285.75" />
<inkscape:page id="page-29" x="0" y="8001.00" width="508.00" height="285.75" />
<inkscape:page id="page-30" x="0" y="8286.75" width="508.00" height="285.75" />
<inkscape:page id="page-31" x="0" y="8572.50" width="508.00" height="285.75" />
<inkscape:page id="page-32" x="0" y="8858.25" width="508.00" height="285.75" />
<inkscape:page id="page-33" x="0" y="9144.00" width="508.00" height="285.75" />
<inkscape:page id="page-34" x="0" y="9429.75" width="508.00" height="285.75" />
<inkscape:page id="page-35" x="0" y="9715.50" width="508.00" height="285.75" />
<inkscape:page id="page-36" x="0" y="10001.25" width="508.00" height="285.75" />
<inkscape:page id="page-37" x="0" y="10287.00" width="508.00" height="285.75" />
<inkscape:page id="page-38" x="0" y="10572.75" width="508.00" height="285.75" />
<inkscape:page id="page-39" x="0" y="10858.50" width="508.00" height="285.75" />
<inkscape:page id="page-40" x="0" y="11144.25" width="508.00" height="285.75" />
<inkscape:page id="page-41" x="0" y="11430.00" width="508.00" height="285.75" />
<inkscape:page id="page-42" x="0" y="11715.75" width="508.00" height="285.75" />
<inkscape:page id="page-43" x="0" y="12001.50" width="508.00" height="285.75" />
<inkscape:page id="page-44" x="0" y="12287.25" width="508.00" height="285.75" />
<inkscape:page id="page-45" x="0" y="12573.00" width="508.00" height="285.75" />
<inkscape:page id="page-46" x="0" y="12858.75" width="508.00" height="285.75" />
<inkscape:page id="page-47" x="0" y="13144.50" width="508.00" height="285.75" />
<inkscape:page id="page-48" x="0" y="13430.25" width="508.00" height="285.75" />
<inkscape:page id="page-49" x="0" y="13716.00" width="508.00" height="285.75" />
<inkscape:page id="page-50" x="0" y="14001.75" width="508.00" height="285.75" />
<inkscape:page id="page-51" x="0" y="14287.50" width="508.00" height="285.75" />
<inkscape:page id="page-52" x="0" y="14573.25" width="508.00" height="285.75" />
<inkscape:page id="page-53" x="0" y="14859.00" width="508.00" height="285.75" />
<inkscape:page id="page-54" x="0" y="15144.75" width="508.00" height="285.75" />
<inkscape:page id="page-55" x="0" y="15430.50" width="508.00" height="285.75" />
<inkscape:page id="page-56" x="0" y="15716.25" width="508.00" height="285.75" />
<inkscape:page id="page-57" x="0" y="16002.00" width="508.00" height="285.75" />
<inkscape:page id="page-58" x="0" y="16287.75" width="508.00" height="285.75" />
<inkscape:page id="page-59" x="0" y="16573.50" width="508.00" height="285.75" />
<inkscape:page id="page-60" x="0" y="16859.25" width="508.00" height="285.75" />
<inkscape:page id="page-61" x="0" y="17145.00" width="508.00" height="285.75" />
<inkscape:page id="page-62" x="0" y="17430.75" width="508.00" height="285.75" />
<inkscape:page id="page-63" x="0" y="17716.50" width="508.00" height="285.75" />
<inkscape:page id="page-64" x="0" y="18002.25" width="508.00" height="285.75" />
<inkscape:page id="page-65" x="0" y="18288.00" width="508.00" height="285.75" />
<inkscape:page id="page-66" x="0" y="18573.75" width="508.00" height="285.75" />
<inkscape:page id="page-67" x="0" y="18859.50" width="508.00" height="285.75" />
<inkscape:page id="page-68" x="0" y="19145.25" width="508.00" height="285.75" />
<inkscape:page id="page-69" x="0" y="19431.00" width="508.00" height="285.75" />
<inkscape:page id="page-70" x="0" y="19716.75" width="508.00" height="285.75" />
<inkscape:page id="page-71" x="0" y="20002.50" width="508.00" height="285.75" />
<inkscape:page id="page-72" x="0" y="20288.25" width="508.00" height="285.75" />
<inkscape:page id="page-73" x="0" y="20574.00" width="508.00" height="285.75" />
<inkscape:page id="page-74" x="0" y="20859.75" width="508.00" height="285.75" />
<inkscape:page id="page-75" x="0" y="21145.50" width="508.00" height="285.75" />
<inkscape:page id="page-76" x="0" y="21431.25" width="508.00" height="285.75" />
<inkscape:page id="page-77" x="0" y="21717.00" width="508.00" height="285.75" />
<inkscape:page id="page-78" x="0" y="22002.75" width="508.00" height="285.75" />
  </sodipodi:namedview>
  <defs
     id="defs39374" />
  <g
     inkscape:label="Layer 1"
     inkscape:groupmode="layer"
     id="layer1" />
</svg>
