<?xml version="1.0" encoding="UTF-8" standalone="no"?>
<!-- Created with Inkscape (http://www.inkscape.org/) -->

<svg
   width="1920"
   height="1080"
   viewBox="0 0 1920 1080"
   version="1.1"
   id="svg39377"
   inkscape:version="1.2.1 (9c6d41e410, 2022-07-14)"
   sodipodi:docname="multidoc-vertical.svg"
   xmlns:inkscape="http://www.inkscape.org/namespaces/inkscape"
   xmlns:sodipodi="http://sodipodi.sourceforge.net/DTD/sodipodi-0.dtd"
   xmlns="http://www.w3.org/2000/svg"
   xmlns:svg="http://www.w3.org/2000/svg">
  <sodipodi:namedview
     id="namedview39379"
     pagecolor="#ffffff"
     bordercolor="#666666"
     borderopacity="1.0"
     inkscape:showpageshadow="2"
     inkscape:pageopacity="0.0"
     inkscape:pagecheckerboard="0"
     inkscape:deskcolor="#d1d1d1"
     inkscape:document-units="px"
     showgrid="false"
     inkscape:zoom="0.5"
     inkscape:cx="1100"
     inkscape:cy="500"
     inkscape:window-width="1920"
     inkscape:window-height="1009"
     inkscape:window-x="-8"
     inkscape:window-y="-8"
     inkscape:window-maximized="1"
     inkscape:current-layer="layer1">
    <inkscape:page id="page-1" x="0.00" y="0" width="1920.00" height="1080.00" />
<inkscape:page id="page-2" x="1920.00" y="0" width="1920.00" height="1080.00" />
<inkscape:page id="page-3" x="3840.00" y="0" width="1920.00" height="1080.00" />
<inkscape:page id="page-4" x="5760.00" y="0" width="1920.00" height="1080.00" />
<inkscape:page id="page-5" x="7680.00" y="0" width="1920.00" height="1080.00" />
<inkscape:page id="page-6" x="9600.00" y="0" width="1920.00" height="1080.00" />
<inkscape:page id="page-7" x="11520.00" y="0" width="1920.00" height="1080.00" />
<inkscape:page id="page-8" x="13440.00" y="0" width="1920.00" height="1080.00" />
<inkscape:page id="page-9" x="15360.00" y="0" width="1920.00" height="1080.00" />
<inkscape:page id="page-10" x="17280.00" y="0" width="1920.00" height="1080.00" />
<inkscape:page id="page-11" x="19200.00" y="0" width="1920.00" height="1080.00" />
<inkscape:page id="page-12" x="21120.00" y="0" width="1920.00" height="1080.00" />
<inkscape:page id="page-13" x="23040.00" y="0" width="1920.00" height="1080.00" />
<inkscape:page id="page-14" x="24960.00" y="0" width="1920.00" height="1080.00" />
<inkscape:page id="page-15" x="26880.00" y="0" width="1920.00" height="1080.00" />
<inkscape:page id="page-16" x="28800.00" y="0" width="1920.00" height="1080.00" />
<inkscape:page id="page-17" x="30720.00" y="0" width="1920.00" height="1080.00" />
<inkscape:page id="page-18" x="32640.00" y="0" width="1920.00" height="1080.00" />
<inkscape:page id="page-19" x="34560.00" y="0" width="1920.00" height="1080.00" />
<inkscape:page id="page-20" x="36480.00" y="0" width="1920.00" height="1080.00" />
<inkscape:page id="page-21" x="38400.00" y="0" width="1920.00" height="1080.00" />
<inkscape:page id="page-22" x="40320.00" y="0" width="1920.00" height="1080.00" />
<inkscape:page id="page-23" x="42240.00" y="0" width="1920.00" height="1080.00" />
<inkscape:page id="page-24" x="44160.00" y="0" width="1920.00" height="1080.00" />
<inkscape:page id="page-25" x="46080.00" y="0" width="1920.00" height="1080.00" />
<inkscape:page id="page-26" x="48000.00" y="0" width="1920.00" height="1080.00" />
<inkscape:page id="page-27" x="49920.00" y="0" width="1920.00" height="1080.00" />
<inkscape:page id="page-28" x="51840.00" y="0" width="1920.00" height="1080.00" />
<inkscape:page id="page-29" x="53760.00" y="0" width="1920.00" height="1080.00" />
<inkscape:page id="page-30" x="55680.00" y="0" width="1920.00" height="1080.00" />
<inkscape:page id="page-31" x="57600.00" y="0" width="1920.00" height="1080.00" />
<inkscape:page id="page-32" x="59520.00" y="0" width="1920.00" height="1080.00" />
<inkscape:page id="page-33" x="61440.00" y="0" width="1920.00" height="1080.00" />
<inkscape:page id="page-34" x="63360.00" y="0" width="1920.00" height="1080.00" />
<inkscape:page id="page-35" x="65280.00" y="0" width="1920.00" height="1080.00" />
<inkscape:page id="page-36" x="67200.00" y="0" width="1920.00" height="1080.00" />
<inkscape:page id="page-37" x="69120.00" y="0" width="1920.00" height="1080.00" />
<inkscape:page id="page-38" x="71040.00" y="0" width="1920.00" height="1080.00" />
<inkscape:page id="page-39" x="72960.00" y="0" width="1920.00" height="1080.00" />
<inkscape:page id="page-40" x="74880.00" y="0" width="1920.00" height="1080.00" />
<inkscape:page id="page-41" x="76800.00" y="0" width="1920.00" height="1080.00" />
<inkscape:page id="page-42" x="78720.00" y="0" width="1920.00" height="1080.00" />
<inkscape:page id="page-43" x="80640.00" y="0" width="1920.00" height="1080.00" />
<inkscape:page id="page-44" x="82560.00" y="0" width="1920.00" height="1080.00" />
<inkscape:page id="page-45" x="84480.00" y="0" width="1920.00" height="1080.00" />
<inkscape:page id="page-46" x="86400.00" y="0" width="1920.00" height="1080.00" />
<inkscape:page id="page-47" x="88320.00" y="0" width="1920.00" height="1080.00" />
<inkscape:page id="page-48" x="90240.00" y="0" width="1920.00" height="1080.00" />
<inkscape:page id="page-49" x="92160.00" y="0" width="1920.00" height="1080.00" />
<inkscape:page id="page-50" x="94080.00" y="0" width="1920.00" height="1080.00" />
<inkscape:page id="page-51" x="96000.00" y="0" width="1920.00" height="1080.00" />
<inkscape:page id="page-52" x="97920.00" y="0" width="1920.00" height="1080.00" />
<inkscape:page id="page-53" x="99840.00" y="0" width="1920.00" height="1080.00" />
<inkscape:page id="page-54" x="101760.00" y="0" width="1920.00" height="1080.00" />
<inkscape:page id="page-55" x="103680.00" y="0" width="1920.00" height="1080.00" />
<inkscape:page id="page-56" x="105600.00" y="0" width="1920.00" height="1080.00" />
<inkscape:page id="page-57" x="107520.00" y="0" width="1920.00" height="1080.00" />
<inkscape:page id="page-58" x="109440.00" y="0" width="1920.00" height="1080.00" />
<inkscape:page id="page-59" x="111360.00" y="0" width="1920.00" height="1080.00" />
<inkscape:page id="page-60" x="113280.00" y="0" width="1920.00" height="1080.00" />
<inkscape:page id="page-61" x="115200.00" y="0" width="1920.00" height="1080.00" />
<inkscape:page id="page-62" x="117120.00" y="0" width="1920.00" height="1080.00" />
<inkscape:page id="page-63" x="119040.00" y="0" width="1920.00" height="1080.00" />
<inkscape:page id="page-64" x="120960.00" y="0" width="1920.00" height="1080.00" />
<inkscape:page id="page-65" x="122880.00" y="0" width="1920.00" height="1080.00" />
<inkscape:page id="page-66" x="124800.00" y="0" width="1920.00" height="1080.00" />
<inkscape:page id="page-67" x="126720.00" y="0" width="1920.00" height="1080.00" />
<inkscape:page id="page-68" x="128640.00" y="0" width="1920.00" height="1080.00" />
<inkscape:page id="page-69" x="130560.00" y="0" width="1920.00" height="1080.00" />
<inkscape:page id="page-70" x="132480.00" y="0" width="1920.00" height="1080.00" />
<inkscape:page id="page-71" x="134400.00" y="0" width="1920.00" height="1080.00" />
<inkscape:page id="page-72" x="136320.00" y="0" width="1920.00" height="1080.00" />
<inkscape:page id="page-73" x="138240.00" y="0" width="1920.00" height="1080.00" />
<inkscape:page id="page-74" x="140160.00" y="0" width="1920.00" height="1080.00" />
<inkscape:page id="page-75" x="142080.00" y="0" width="1920.00" height="1080.00" />
<inkscape:page id="page-76" x="144000.00" y="0" width="1920.00" height="1080.00" />
<inkscape:page id="page-77" x="145920.00" y="0" width="1920.00" height="1080.00" />
<inkscape:page id="page-78" x="147840.00" y="0" width="1920.00" height="1080.00" />
<inkscape:page id="page-79" x="149760.00" y="0" width="1920.00" height="1080.00" />
<inkscape:page id="page-80" x="151680.00" y="0" width="1920.00" height="1080.00" />
  </sodipodi:namedview>
  <defs
     id="defs39374" />
  <g
     inkscape:label="Layer 1"
     inkscape:groupmode="layer"
     id="layer1" />
</svg>
